<svg width="50" height="50" viewBox="0 0 50 50" fill="none" xmlns="http://www.w3.org/2000/svg">
<path d="M46.309 0H3.69097C2.71207 0 1.77325 0.38887 1.08106 1.08106C0.38887 1.77325 0 2.71207 0 3.69097V46.309C0 47.2879 0.38887 48.2267 1.08106 48.9189C1.77325 49.6111 2.71207 50 3.69097 50H46.309C47.2879 50 48.2267 49.6111 48.9189 48.9189C49.6111 48.2267 50 47.2879 50 46.309V3.69097C50 2.71207 49.6111 1.77325 48.9189 1.08106C48.2267 0.38887 47.2879 0 46.309 0ZM14.9028 42.5937H7.38542V18.7153H14.9028V42.5937ZM11.1389 15.4062C10.2862 15.4014 9.45399 15.1442 8.74736 14.6668C8.04074 14.1895 7.49133 13.5136 7.16849 12.7244C6.84566 11.9351 6.76385 11.0679 6.9334 10.2322C7.10295 9.39649 7.51625 8.62974 8.12116 8.02871C8.72606 7.42768 9.49545 7.01931 10.3322 6.85513C11.169 6.69095 12.0357 6.77832 12.8228 7.10622C13.61 7.43412 14.2824 7.98785 14.7551 8.69753C15.2279 9.4072 15.4798 10.241 15.4792 11.0938C15.4872 11.6647 15.3802 12.2313 15.1646 12.76C14.949 13.2887 14.6291 13.7685 14.2241 14.171C13.8191 14.5734 13.3372 14.8902 12.8071 15.1024C12.2771 15.3146 11.7097 15.418 11.1389 15.4062ZM42.6111 42.6146H35.0972V29.5694C35.0972 25.7222 33.4618 24.5347 31.3507 24.5347C29.1215 24.5347 26.934 26.2153 26.934 29.6667V42.6146H19.4167V18.7326H26.6458V22.0417H26.7431C27.4688 20.5729 30.0104 18.0625 33.8889 18.0625C38.0833 18.0625 42.6146 20.5521 42.6146 27.8438L42.6111 42.6146Z" fill="#0A66C2"/>
</svg>
