<svg width="48" height="33" viewBox="0 0 48 33" fill="none" xmlns="http://www.w3.org/2000/svg">
<path d="M10.548 12C12.6247 12 14.6548 12.6158 16.3815 13.7696C18.1082 14.9233 19.454 16.5632 20.2487 18.4818C21.0435 20.4004 21.2514 22.5117 20.8462 24.5485C20.4411 26.5853 19.4411 28.4562 17.9726 29.9246C16.5042 31.3931 14.6332 32.3931 12.5964 32.7982C10.5596 33.2034 8.44845 32.9955 6.52982 32.2007C4.6112 31.406 2.97132 30.0602 1.81757 28.3335C0.663814 26.6068 0.048 24.5767 0.048 22.5L0 21C0 15.4305 2.21249 10.089 6.15076 6.15076C10.089 2.21249 15.4305 0 21 0V6C19.0293 5.9947 17.0771 6.38013 15.2563 7.134C13.4355 7.88786 11.7822 8.99521 10.392 10.392C9.85168 10.9313 9.35324 11.511 8.901 12.126C9.438 12.042 9.987 11.997 10.545 11.997L10.548 12ZM37.548 12C39.6247 12 41.6548 12.6158 43.3815 13.7696C45.1082 14.9233 46.454 16.5632 47.2487 18.4818C48.0435 20.4004 48.2514 22.5117 47.8462 24.5485C47.4411 26.5853 46.4411 28.4562 44.9726 29.9246C43.5042 31.3931 41.6333 32.3931 39.5965 32.7982C37.5596 33.2034 35.4484 32.9955 33.5298 32.2007C31.6112 31.406 29.9713 30.0602 28.8176 28.3335C27.6638 26.6068 27.048 24.5767 27.048 22.5L27 21C27 15.4305 29.2125 10.089 33.1508 6.15076C37.089 2.21249 42.4305 0 48 0V6C46.0293 5.9947 44.0771 6.38013 42.2563 7.134C40.4355 7.88786 38.7822 8.99521 37.392 10.392C36.8517 10.9313 36.3532 11.511 35.901 12.126C36.438 12.042 36.987 11.997 37.548 11.997V12Z" fill="white"/>
</svg>
